<?xml version="1.0" standalone="no"?>
<!DOCTYPE svg PUBLIC "-//W3C//DTD SVG 20010904//EN"
 "http://www.w3.org/TR/2001/REC-SVG-20010904/DTD/svg10.dtd">
<svg version="1.0" xmlns="http://www.w3.org/2000/svg"
 width="800.000000pt" height="800.000000pt" viewBox="0 0 800.000000 800.000000"
 preserveAspectRatio="xMidYMid meet">
<metadata>
Created by potrace 1.14, written by Peter Selinger 2001-2017
</metadata>
<g transform="translate(0.000000,800.000000) scale(0.100000,-0.100000)"
fill="#000000" stroke="none">
<path d="M3930 7443 c-8 -3 -39 -14 -67 -25 -75 -27 -164 -98 -229 -182 -221
-282 -373 -935 -337 -1443 33 -446 181 -1024 388 -1516 21 -48 36 -89 34 -91
-2 -2 -33 -16 -69 -30 -36 -15 -70 -29 -76 -32 -10 -5 -155 211 -226 336 -134
235 -320 626 -427 895 -180 451 -264 887 -217 1125 33 168 101 260 191 260
107 0 177 -119 269 -454 37 -136 56 -159 56 -69 -1 347 -140 653 -297 653 -63
0 -107 -22 -172 -88 -65 -64 -128 -182 -155 -288 -61 -237 -42 -643 45 -989
19 -77 133 -449 150 -490 4 -11 31 -85 60 -164 88 -247 222 -524 376 -779 81
-135 79 -120 21 -190 -16 -18 -43 -63 -62 -100 -81 -160 -112 -342 -103 -602
9 -247 38 -383 117 -540 75 -150 130 -187 317 -215 24 -4 45 -10 47 -14 3 -4
-2 -34 -12 -67 -24 -86 -23 -322 2 -429 33 -145 110 -265 232 -362 99 -80 150
-98 274 -97 122 1 191 21 270 79 160 118 263 384 231 598 -7 45 -19 96 -26
112 -12 27 -12 19 -8 -70 7 -115 -13 -224 -52 -290 -39 -67 -133 -149 -200
-174 -52 -20 -74 -22 -165 -19 -90 3 -113 8 -165 33 -174 83 -307 322 -308
555 -1 156 43 244 162 325 39 27 71 52 71 56 0 4 -28 10 -62 14 -155 17 -240
57 -336 158 -63 67 -96 133 -127 250 -51 199 -56 376 -15 510 20 65 92 187
110 187 5 0 30 -15 54 -34 67 -51 152 -58 231 -19 17 9 53 33 82 55 51 39 73
42 73 12 0 -9 15 -48 34 -89 39 -85 67 -105 144 -105 l49 0 12 -222 c21 -389
49 -537 133 -715 72 -153 181 -243 297 -243 111 0 170 36 246 150 95 143 153
359 162 605 9 256 -20 435 -99 595 -34 71 -58 101 -140 183 -54 54 -98 103
-98 110 0 7 70 127 156 267 336 546 597 1064 724 1435 94 274 131 425 137 560
7 157 -11 211 -101 301 -79 78 -131 97 -255 92 -82 -3 -95 -6 -185 -51 -108
-54 -202 -134 -277 -237 -47 -65 -57 -63 -58 12 -2 79 -43 278 -83 392 -82
243 -192 416 -325 518 -93 70 -156 90 -293 94 -63 2 -122 1 -130 -3z m266
-131 c243 -157 385 -530 414 -1086 l9 -169 -46 -126 c-86 -240 -161 -529 -262
-1021 -33 -157 -67 -308 -75 -337 -21 -65 -106 -259 -141 -318 l-26 -45 -78 0
c-66 0 -80 3 -86 18 -48 117 -213 643 -259 830 -212 845 -236 1287 -94 1731
36 112 59 162 138 291 118 192 224 268 376 269 66 1 75 -2 130 -37z m1261
-737 c42 -30 56 -93 50 -227 -4 -100 -12 -148 -41 -253 -47 -168 -115 -368
-178 -525 -81 -202 -317 -681 -425 -865 -283 -482 -346 -585 -358 -585 -7 0
-23 8 -35 18 -25 20 -26 8 35 337 14 77 41 223 60 325 150 807 278 1235 450
1501 59 92 182 216 255 257 63 36 149 44 187 17z m-1329 -2594 c7 -48 -9 -131
-24 -131 -15 0 -64 96 -64 125 0 19 30 35 60 32 18 -1 26 -9 28 -26z m-318
-40 c0 -23 -44 -61 -70 -61 -20 0 -35 29 -23 41 13 13 67 39 81 39 6 0 12 -9
12 -19z m795 -102 c91 -87 138 -173 161 -299 46 -242 -48 -600 -157 -600 -64
0 -117 62 -164 193 -70 196 -74 435 -11 619 26 75 72 158 86 158 6 0 44 -32
85 -71z"/>
</g>
</svg>
